<svg xmlns="http://www.w3.org/2000/svg" width="32" height="31"><path fill="#95e1d3" d="M30.74 9.503a15.719 15.719 0 00-8.243-8.243c1-.787 2.258-1.26 3.629-1.26A5.874 5.874 0 0132 5.874a5.846 5.846 0 01-1.26 3.629zM30.5 16c0 3.852-1.512 7.343-3.963 9.94l2.029 2.028a1.483 1.483 0 01-2.097 2.097l-2.18-2.178A14.419 14.419 0 0116 30.5a14.42 14.42 0 01-8.276-2.603L5.561 30.06a1.5 1.5 0 11-2.121-2.12l2.011-2.012C3.008 23.332 1.5 19.845 1.5 16 1.5 7.992 7.992 1.5 16 1.5S30.5 7.992 30.5 16zM16 4.5C9.649 4.5 4.5 9.648 4.5 16c0 6.351 5.149 11.5 11.5 11.5S27.5 22.35 27.5 16c0-6.352-5.15-11.5-11.5-11.5zm6 13h-6a1.5 1.5 0 01-1.5-1.5V8a1.5 1.5 0 013 0v6.5H22a1.5 1.5 0 010 3zM1.287 9.705A5.967 5.967 0 010 6a6 6 0 016-6c1.4 0 2.685.483 3.706 1.287a16.056 16.056 0 00-8.419 8.418z"/></svg>